<svg width="54" height="54" viewBox="0 0 54 54" fill="none" xmlns="http://www.w3.org/2000/svg">
<path d="M39.375 0H14.625C10.7462 0 7.02628 1.54084 4.28356 4.28356C1.54084 7.02628 0 10.7462 0 14.625V39.375C0 41.2956 0.378287 43.1974 1.11326 44.9717C1.84824 46.7461 2.92551 48.3584 4.28356 49.7164C7.02628 52.4592 10.7462 54 14.625 54H39.375C41.2956 54 43.1974 53.6217 44.9717 52.8867C46.7461 52.1518 48.3584 51.0745 49.7164 49.7164C51.0745 48.3584 52.1518 46.7461 52.8867 44.9717C53.6217 43.1974 54 41.2956 54 39.375V14.625C54 12.7044 53.6217 10.8026 52.8867 9.02826C52.1518 7.25387 51.0745 5.64162 49.7164 4.28356C48.3584 2.92551 46.7461 1.84824 44.9717 1.11326C43.1974 0.378287 41.2956 0 39.375 0ZM51.75 39.375C51.75 42.6571 50.4462 45.8047 48.1254 48.1254C45.8047 50.4462 42.6571 51.75 39.375 51.75H14.625C11.3429 51.75 8.19532 50.4462 5.87455 48.1254C3.55379 45.8047 2.25 42.6571 2.25 39.375V14.625C2.25 11.3429 3.55379 8.19532 5.87455 5.87455C8.19532 3.55379 11.3429 2.25 14.625 2.25H39.375C42.6571 2.25 45.8047 3.55379 48.1254 5.87455C50.4462 8.19532 51.75 11.3429 51.75 14.625V39.375Z" fill="white"/>
<g clip-path="url(#clip0_10_835)">
<path d="M24.88 26.352C26.1173 26.7573 27.0987 27.44 27.824 28.4C28.5493 29.3387 28.912 30.512 28.912 31.92C28.912 33.8613 28.1653 35.3653 26.672 36.432C25.1787 37.4773 23.0027 38 20.144 38H9.008V15.6H19.504C22.1493 15.6 24.1867 16.1227 25.616 17.168C27.0453 18.192 27.76 19.6107 27.76 21.424C27.76 22.5333 27.504 23.5147 26.992 24.368C26.48 25.2213 25.776 25.8827 24.88 26.352ZM13.168 18.864V25.04H19.056C20.5067 25.04 21.616 24.784 22.384 24.272C23.1733 23.7387 23.568 22.9707 23.568 21.968C23.568 20.944 23.1733 20.176 22.384 19.664C21.616 19.1307 20.5067 18.864 19.056 18.864H13.168ZM19.888 34.736C23.1093 34.736 24.72 33.6587 24.72 31.504C24.72 29.3493 23.1093 28.272 19.888 28.272H13.168V34.736H19.888ZM47.4318 29.552C47.4318 29.8293 47.4104 30.224 47.3678 30.736H33.9597C34.1944 31.9947 34.8024 32.9973 35.7838 33.744C36.7864 34.4693 38.0238 34.832 39.4958 34.832C41.3731 34.832 42.9198 34.2133 44.1358 32.976L46.2798 35.44C45.5118 36.3573 44.5411 37.0507 43.3678 37.52C42.1944 37.9893 40.8717 38.224 39.3997 38.224C37.5224 38.224 35.8691 37.8507 34.4397 37.104C33.0104 36.3573 31.9011 35.3227 31.1117 34C30.3437 32.656 29.9597 31.1413 29.9597 29.456C29.9597 27.792 30.3331 26.2987 31.0797 24.976C31.8477 23.632 32.9037 22.5867 34.2477 21.84C35.5917 21.0933 37.1064 20.72 38.7917 20.72C40.4558 20.72 41.9384 21.0933 43.2397 21.84C44.5624 22.5653 45.5864 23.6 46.3118 24.944C47.0584 26.2667 47.4318 27.8027 47.4318 29.552ZM38.7917 23.92C37.5117 23.92 36.4237 24.304 35.5278 25.072C34.6531 25.8187 34.1197 26.8213 33.9277 28.08H43.6238C43.4531 26.8427 42.9304 25.84 42.0557 25.072C41.1811 24.304 40.0931 23.92 38.7917 23.92Z" fill="white"/>
<path d="M32.5 19.5H44.5" stroke="white" stroke-width="2"/>
</g>
<defs>
<clipPath id="clip0_10_835">
<rect width="40" height="36" fill="white" transform="translate(9 9)"/>
</clipPath>
</defs>
</svg>
