<svg width="54" height="54" viewBox="0 0 54 54" fill="none" xmlns="http://www.w3.org/2000/svg">
<path d="M27 14.625C24.5525 14.625 22.1599 15.3508 20.1248 16.7106C18.0898 18.0703 16.5036 20.0031 15.567 22.2643C14.6304 24.5255 14.3853 27.0137 14.8628 29.4142C15.3403 31.8148 16.5189 34.0198 18.2496 35.7504C19.9802 37.4811 22.1852 38.6597 24.5858 39.1372C26.9863 39.6147 29.4745 39.3696 31.7357 38.433C33.9969 37.4964 35.9297 35.9102 37.2894 33.8752C38.6492 31.8401 39.375 29.4475 39.375 27C39.375 23.7179 38.0712 20.5703 35.7504 18.2496C33.4297 15.9288 30.2821 14.625 27 14.625ZM27 37.125C24.9975 37.125 23.0399 36.5312 21.3749 35.4186C19.7098 34.3061 18.4121 32.7248 17.6457 30.8747C16.8794 29.0246 16.6789 26.9888 17.0695 25.0247C17.4602 23.0607 18.4245 21.2566 19.8405 19.8405C21.2566 18.4245 23.0607 17.4602 25.0247 17.0695C26.9888 16.6789 29.0246 16.8794 30.8747 17.6457C32.7248 18.4121 34.3061 19.7098 35.4186 21.3749C36.5312 23.0399 37.125 24.9975 37.125 27C37.125 29.6853 36.0583 32.2606 34.1595 34.1595C32.2606 36.0583 29.6853 37.125 27 37.125ZM39.375 0H14.625C10.7462 0 7.02628 1.54084 4.28356 4.28356C1.54084 7.02628 0 10.7462 0 14.625V39.375C0 41.2956 0.378287 43.1974 1.11326 44.9717C1.84824 46.7461 2.92551 48.3584 4.28356 49.7164C7.02628 52.4592 10.7462 54 14.625 54H39.375C41.2956 54 43.1974 53.6217 44.9717 52.8867C46.7461 52.1518 48.3584 51.0745 49.7164 49.7164C51.0745 48.3584 52.1518 46.7461 52.8867 44.9717C53.6217 43.1974 54 41.2956 54 39.375V14.625C54 12.7044 53.6217 10.8026 52.8867 9.02826C52.1518 7.25387 51.0745 5.64162 49.7164 4.28356C48.3584 2.92551 46.7461 1.84824 44.9717 1.11326C43.1974 0.378287 41.2956 0 39.375 0ZM51.75 39.375C51.75 42.6571 50.4462 45.8047 48.1254 48.1254C45.8047 50.4462 42.6571 51.75 39.375 51.75H14.625C11.3429 51.75 8.19532 50.4462 5.87455 48.1254C3.55379 45.8047 2.25 42.6571 2.25 39.375V14.625C2.25 11.3429 3.55379 8.19532 5.87455 5.87455C8.19532 3.55379 11.3429 2.25 14.625 2.25H39.375C42.6571 2.25 45.8047 3.55379 48.1254 5.87455C50.4462 8.19532 51.75 11.3429 51.75 14.625V39.375ZM43.875 12.375C43.875 12.82 43.743 13.255 43.4958 13.625C43.2486 13.995 42.8972 14.2834 42.486 14.4537C42.0749 14.624 41.6225 14.6686 41.186 14.5818C40.7496 14.495 40.3487 14.2807 40.034 13.966C39.7193 13.6513 39.505 13.2504 39.4182 12.814C39.3314 12.3775 39.376 11.9251 39.5463 11.514C39.7166 11.1028 40.005 10.7514 40.375 10.5042C40.745 10.257 41.18 10.125 41.625 10.125C42.2217 10.125 42.794 10.3621 43.216 10.784C43.6379 11.206 43.875 11.7783 43.875 12.375Z" fill="white"/>
</svg>
