<svg width="54" height="54" viewBox="0 0 54 54" fill="none" xmlns="http://www.w3.org/2000/svg">
<path d="M37.73 43.4402C37.3937 43.4393 37.0584 43.4024 36.73 43.3302C30.4766 42.0366 24.7156 39.0036 20.11 34.5802C15.6026 30.1471 12.4766 24.5028 11.11 18.3302C10.9488 17.5609 10.9884 16.7631 11.2248 16.0135C11.4613 15.2639 11.8866 14.5878 12.46 14.0502L16.46 10.2002C16.6643 10.007 16.907 9.85903 17.1724 9.76599C17.4378 9.67294 17.7197 9.63689 18 9.6602C18.2905 9.69052 18.5709 9.78412 18.8214 9.93442C19.072 10.0847 19.2865 10.2881 19.45 10.5302L24.45 17.9202C24.6375 18.2069 24.728 18.5463 24.7082 18.8883C24.6884 19.2304 24.5593 19.557 24.34 19.8202L21.83 22.8202C22.8296 25.0327 24.2453 27.0323 26 28.7102C27.7433 30.449 29.8038 31.8374 32.07 32.8002L35.18 30.3302C35.4412 30.1238 35.759 30.0017 36.0913 29.9803C36.4235 29.9589 36.7544 30.039 37.04 30.2102L44.59 35.0902C44.8491 35.2449 45.0698 35.4562 45.2356 35.7083C45.4015 35.9605 45.5081 36.2468 45.5475 36.546C45.587 36.8452 45.5582 37.1494 45.4634 37.4359C45.3685 37.7223 45.2101 37.9836 45 38.2002L41.1 42.0602C40.657 42.501 40.1312 42.8499 39.5528 43.0867C38.9744 43.3236 38.3549 43.4437 37.73 43.4402ZM17.84 11.6402L13.84 15.4902C13.5174 15.7908 13.2787 16.1701 13.1472 16.5909C13.0157 17.0117 12.996 17.4595 13.09 17.8902C14.3607 23.6823 17.2817 28.9825 21.5 33.1502C25.8342 37.3118 31.2556 40.1646 37.14 41.3802C37.5854 41.4733 38.0469 41.4545 38.4833 41.3253C38.9196 41.1962 39.317 40.9608 39.64 40.6402L43.54 36.7802L36.25 32.0702L32.91 34.7302C32.7821 34.8314 32.6314 34.8998 32.4711 34.9294C32.3107 34.9591 32.1456 34.949 31.99 34.9002C29.2167 33.8784 26.7034 32.2564 24.63 30.1502C22.4853 28.1474 20.8206 25.6862 19.76 22.9502C19.7151 22.7846 19.7136 22.6102 19.7557 22.4438C19.7977 22.2774 19.8818 22.1247 20 22.0002L22.7 18.7702L17.84 11.6402Z" fill="white"/>
<path d="M39.375 0H14.625C10.7462 0 7.02628 1.54084 4.28356 4.28356C1.54084 7.02628 0 10.7462 0 14.625V39.375C0 41.2956 0.378287 43.1974 1.11326 44.9717C1.84824 46.7461 2.92551 48.3584 4.28356 49.7164C7.02628 52.4592 10.7462 54 14.625 54H39.375C41.2956 54 43.1974 53.6217 44.9717 52.8867C46.7461 52.1518 48.3584 51.0745 49.7164 49.7164C51.0745 48.3584 52.1518 46.7461 52.8867 44.9717C53.6217 43.1974 54 41.2956 54 39.375V14.625C54 12.7044 53.6217 10.8026 52.8867 9.02826C52.1518 7.25387 51.0745 5.64162 49.7164 4.28356C48.3584 2.92551 46.7461 1.84824 44.9717 1.11326C43.1974 0.378287 41.2956 0 39.375 0ZM51.75 39.375C51.75 42.6571 50.4462 45.8047 48.1254 48.1254C45.8047 50.4462 42.6571 51.75 39.375 51.75H14.625C11.3429 51.75 8.19532 50.4462 5.87455 48.1254C3.55379 45.8047 2.25 42.6571 2.25 39.375V14.625C2.25 11.3429 3.55379 8.19532 5.87455 5.87455C8.19532 3.55379 11.3429 2.25 14.625 2.25H39.375C42.6571 2.25 45.8047 3.55379 48.1254 5.87455C50.4462 8.19532 51.75 11.3429 51.75 14.625V39.375Z" fill="white"/>
</svg>
