<svg width="62" height="62" viewBox="0 0 62 62" fill="none" xmlns="http://www.w3.org/2000/svg">
<g filter="url(#filter0_d_10_826)">
<path d="M41.73 43.4402C41.3937 43.4393 41.0584 43.4024 40.73 43.3302C34.4766 42.0366 28.7156 39.0036 24.11 34.5802C19.6026 30.1471 16.4766 24.5028 15.11 18.3302C14.9488 17.5609 14.9884 16.7631 15.2248 16.0135C15.4613 15.2639 15.8866 14.5878 16.46 14.0502L20.46 10.2002C20.6643 10.007 20.907 9.85903 21.1724 9.76599C21.4378 9.67294 21.7197 9.63689 22 9.6602C22.2905 9.69052 22.5709 9.78412 22.8214 9.93442C23.072 10.0847 23.2865 10.2881 23.45 10.5302L28.45 17.9202C28.6375 18.2069 28.728 18.5463 28.7082 18.8883C28.6884 19.2304 28.5593 19.557 28.34 19.8202L25.83 22.8202C26.8296 25.0327 28.2453 27.0323 30 28.7102C31.7433 30.449 33.8038 31.8374 36.07 32.8002L39.18 30.3302C39.4412 30.1238 39.759 30.0017 40.0913 29.9803C40.4235 29.9589 40.7544 30.039 41.04 30.2102L48.59 35.0902C48.8491 35.2449 49.0698 35.4562 49.2356 35.7083C49.4015 35.9605 49.5081 36.2468 49.5475 36.546C49.587 36.8452 49.5582 37.1494 49.4634 37.4359C49.3685 37.7223 49.2101 37.9836 49 38.2002L45.1 42.0602C44.657 42.501 44.1312 42.8499 43.5528 43.0867C42.9744 43.3236 42.3549 43.4437 41.73 43.4402ZM21.84 11.6402L17.84 15.4902C17.5174 15.7908 17.2787 16.1701 17.1472 16.5909C17.0157 17.0117 16.996 17.4595 17.09 17.8902C18.3607 23.6823 21.2817 28.9825 25.5 33.1502C29.8342 37.3118 35.2556 40.1646 41.14 41.3802C41.5854 41.4733 42.0469 41.4545 42.4833 41.3253C42.9196 41.1962 43.317 40.9608 43.64 40.6402L47.54 36.7802L40.25 32.0702L36.91 34.7302C36.7821 34.8314 36.6314 34.8998 36.4711 34.9294C36.3107 34.9591 36.1456 34.949 35.99 34.9002C33.2167 33.8784 30.7034 32.2564 28.63 30.1502C26.4853 28.1474 24.8206 25.6862 23.76 22.9502C23.7151 22.7846 23.7136 22.6102 23.7557 22.4438C23.7977 22.2774 23.8818 22.1247 24 22.0002L26.7 18.7702L21.84 11.6402Z" fill="white"/>
<path d="M43.375 0H18.625C14.7462 0 11.0263 1.54084 8.28356 4.28356C5.54084 7.02628 4 10.7462 4 14.625V39.375C4 41.2956 4.37829 43.1974 5.11326 44.9717C5.84824 46.7461 6.92551 48.3584 8.28356 49.7164C11.0263 52.4592 14.7462 54 18.625 54H43.375C45.2956 54 47.1974 53.6217 48.9717 52.8867C50.7461 52.1518 52.3584 51.0745 53.7164 49.7164C55.0745 48.3584 56.1518 46.7461 56.8867 44.9717C57.6217 43.1974 58 41.2956 58 39.375V14.625C58 12.7044 57.6217 10.8026 56.8867 9.02826C56.1518 7.25387 55.0745 5.64162 53.7164 4.28356C52.3584 2.92551 50.7461 1.84824 48.9717 1.11326C47.1974 0.378287 45.2956 0 43.375 0ZM55.75 39.375C55.75 42.6571 54.4462 45.8047 52.1254 48.1254C49.8047 50.4462 46.6571 51.75 43.375 51.75H18.625C15.3429 51.75 12.1953 50.4462 9.87455 48.1254C7.55379 45.8047 6.25 42.6571 6.25 39.375V14.625C6.25 11.3429 7.55379 8.19532 9.87455 5.87455C12.1953 3.55379 15.3429 2.25 18.625 2.25H43.375C46.6571 2.25 49.8047 3.55379 52.1254 5.87455C54.4462 8.19532 55.75 11.3429 55.75 14.625V39.375Z" fill="white"/>
</g>
<defs>
<filter id="filter0_d_10_826" x="0" y="0" width="62" height="62" filterUnits="userSpaceOnUse" color-interpolation-filters="sRGB">
<feFlood flood-opacity="0" result="BackgroundImageFix"/>
<feColorMatrix in="SourceAlpha" type="matrix" values="0 0 0 0 0 0 0 0 0 0 0 0 0 0 0 0 0 0 127 0" result="hardAlpha"/>
<feOffset dy="4"/>
<feGaussianBlur stdDeviation="2"/>
<feComposite in2="hardAlpha" operator="out"/>
<feColorMatrix type="matrix" values="0 0 0 0 0 0 0 0 0 0 0 0 0 0 0 0 0 0 0.25 0"/>
<feBlend mode="normal" in2="BackgroundImageFix" result="effect1_dropShadow_10_826"/>
<feBlend mode="normal" in="SourceGraphic" in2="effect1_dropShadow_10_826" result="shape"/>
</filter>
</defs>
</svg>
