<svg width="56" height="54" viewBox="0 0 56 54" fill="none" xmlns="http://www.w3.org/2000/svg">
<path d="M42.3544 12.4654C42.101 12.2381 41.7928 12.0867 41.4629 12.0277C41.1329 11.9687 40.7937 12.0043 40.4817 12.1305L12.161 23.6924C11.793 23.8445 11.482 24.1158 11.2741 24.4661C11.0662 24.8164 10.9725 25.227 11.007 25.637C11.0415 26.0469 11.2022 26.4344 11.4654 26.742C11.7286 27.0495 12.0802 27.2608 12.468 27.3443L20.1584 28.955V38.8104C20.1537 39.1901 20.2597 39.5624 20.4624 39.8783C20.6652 40.1942 20.9551 40.439 21.2943 40.5806C21.5238 40.6755 21.7687 40.7242 22.0157 40.7241C22.2555 40.7244 22.493 40.6752 22.7143 40.5794C22.9356 40.4836 23.1365 40.343 23.3051 40.166L27.6952 35.605L34.1729 41.5215C34.5048 41.8337 34.9378 42.0045 35.3855 41.9999C35.5785 41.9994 35.7702 41.9671 35.9535 41.9042C36.2553 41.8013 36.5266 41.6198 36.7416 41.3769C36.9566 41.134 37.1081 40.8379 37.1815 40.5168L42.9531 14.3313C43.0286 13.9932 43.0127 13.6399 42.907 13.3106C42.8014 12.9813 42.6101 12.6888 42.3544 12.4654V12.4654ZM12.2224 25.5263C12.2042 25.3881 12.2324 25.2475 12.3023 25.1284C12.3722 25.0093 12.4796 24.9189 12.6062 24.8725L38.5783 14.2834L20.6342 27.743L12.7136 26.1004C12.5817 26.0757 12.4616 26.0056 12.3725 25.9016C12.2835 25.7975 12.2306 25.6653 12.2224 25.5263ZM22.4302 39.257C22.3468 39.347 22.2392 39.4089 22.1214 39.4345C22.0037 39.4601 21.8813 39.4482 21.7701 39.4005C21.6569 39.3529 21.56 39.2714 21.4916 39.1663C21.4233 39.0612 21.3866 38.9373 21.3864 38.8104V29.8321L26.7742 34.7598L22.4302 39.257ZM41.7558 14.0602L35.9842 40.2298C35.9612 40.3383 35.9106 40.4384 35.8377 40.5197C35.7648 40.6011 35.6723 40.6606 35.5697 40.6922C35.4707 40.7292 35.3637 40.7369 35.2607 40.7143C35.1577 40.6918 35.0627 40.64 34.9864 40.5646L21.7548 28.4766L41.6637 13.5339C41.7139 13.6099 41.748 13.6961 41.7639 13.7868C41.7798 13.8775 41.777 13.9707 41.7558 14.0602V14.0602Z" fill="white"/>
<path d="M40.8333 0H15.1667C11.1442 0 7.28651 1.54084 4.44221 4.28356C1.59791 7.02628 0 10.7462 0 14.625V39.375C0 41.2956 0.392297 43.1974 1.15449 44.9717C1.91669 46.7461 3.03386 48.3584 4.44221 49.7164C7.28651 52.4592 11.1442 54 15.1667 54H40.8333C42.825 54 44.7973 53.6217 46.6374 52.8867C48.4775 52.1518 50.1494 51.0745 51.5578 49.7164C52.9661 48.3584 54.0833 46.7461 54.8455 44.9717C55.6077 43.1974 56 41.2956 56 39.375V14.625C56 12.7044 55.6077 10.8026 54.8455 9.02826C54.0833 7.25387 52.9661 5.64162 51.5578 4.28356C50.1494 2.92551 48.4775 1.84824 46.6374 1.11326C44.7973 0.378287 42.825 0 40.8333 0ZM53.6667 39.375C53.6667 42.6571 52.3146 45.8047 49.9079 48.1254C47.5012 50.4462 44.2369 51.75 40.8333 51.75H15.1667C11.7631 51.75 8.49885 50.4462 6.09213 48.1254C3.68541 45.8047 2.33333 42.6571 2.33333 39.375V14.625C2.33333 11.3429 3.68541 8.19532 6.09213 5.87455C8.49885 3.55379 11.7631 2.25 15.1667 2.25H40.8333C44.2369 2.25 47.5012 3.55379 49.9079 5.87455C52.3146 8.19532 53.6667 11.3429 53.6667 14.625V39.375Z" fill="white"/>
</svg>
