<svg width="416" height="27" viewBox="0 0 416 27" fill="none" xmlns="http://www.w3.org/2000/svg">
<path d="M26.668 0.799998L15.616 26H12.052L0.964 0.799998H4.852L13.924 21.5L23.068 0.799998H26.668ZM38.1616 0.799998H41.7616V26H38.1616V0.799998ZM62.5901 3.932H53.9501V0.799998H74.7941V3.932H66.1541V26H62.5901V3.932ZM101.785 19.7H88.3934L85.6214 26H81.9134L93.3254 0.799998H96.8894L108.337 26H104.557L101.785 19.7ZM100.525 16.82L95.0894 4.472L89.6534 16.82H100.525ZM120.377 0.799998H123.977V22.868H137.621V26H120.377V0.799998ZM150.032 0.799998H153.632V26H150.032V0.799998ZM179.104 17.288V26H175.54V17.216L165.532 0.799998H169.384L177.448 14.084L185.548 0.799998H189.112L179.104 17.288ZM236.453 13.256H239.909V23.084C238.661 24.116 237.209 24.908 235.553 25.46C233.897 26.012 232.169 26.288 230.369 26.288C227.825 26.288 225.533 25.736 223.493 24.632C221.453 23.504 219.845 21.968 218.669 20.024C217.517 18.056 216.941 15.848 216.941 13.4C216.941 10.952 217.517 8.744 218.669 6.776C219.845 4.808 221.453 3.272 223.493 2.168C225.557 1.064 227.873 0.512 230.441 0.512C232.457 0.512 234.281 0.848 235.913 1.52C237.569 2.168 238.973 3.128 240.125 4.4L237.893 6.632C235.877 4.688 233.441 3.716 230.585 3.716C228.665 3.716 226.937 4.136 225.401 4.976C223.889 5.792 222.701 6.944 221.837 8.432C220.973 9.896 220.541 11.552 220.541 13.4C220.541 15.224 220.973 16.88 221.837 18.368C222.701 19.832 223.889 20.984 225.401 21.824C226.937 22.664 228.653 23.084 230.549 23.084C232.805 23.084 234.773 22.544 236.453 21.464V13.256ZM273.369 22.868V26H255.081V0.799998H272.865V3.932H258.681V11.672H271.317V14.732H258.681V22.868H273.369ZM292.482 3.932H283.842V0.799998H304.686V3.932H296.046V26H292.482V3.932ZM340.251 26L340.215 7.64L331.107 22.94H329.451L320.343 7.748V26H316.887V0.799998H319.839L330.351 18.512L340.719 0.799998H343.671L343.707 26H340.251ZM375.606 19.7H362.214L359.442 26H355.734L367.146 0.799998H370.71L382.158 26H378.378L375.606 19.7ZM374.346 16.82L368.91 4.472L363.474 16.82H374.346ZM415.869 0.799998V26H412.917L397.797 7.208V26H394.197V0.799998H397.149L412.269 19.592V0.799998H415.869Z" fill="white"/>
</svg>
