<svg width="54" height="54" viewBox="0 0 54 54" fill="none" xmlns="http://www.w3.org/2000/svg">
<path d="M27.3529 17V38C19.6765 36.25 13.7059 26.625 12 17M41 17C39.2941 20.5 35.8824 25.75 32.4706 27.5M32.4706 27.5H27.3529M32.4706 27.5C35.8824 29.25 39.2941 34.5 41 38" stroke="white" stroke-width="2" stroke-linecap="round" stroke-linejoin="round"/>
<path d="M39.375 0H14.625C10.7462 0 7.02628 1.54084 4.28356 4.28356C1.54084 7.02628 0 10.7462 0 14.625V39.375C0 41.2956 0.378287 43.1974 1.11326 44.9717C1.84824 46.7461 2.92551 48.3584 4.28356 49.7164C7.02628 52.4592 10.7462 54 14.625 54H39.375C41.2956 54 43.1974 53.6217 44.9717 52.8867C46.7461 52.1518 48.3584 51.0745 49.7164 49.7164C51.0745 48.3584 52.1518 46.7461 52.8867 44.9717C53.6217 43.1974 54 41.2956 54 39.375V14.625C54 12.7044 53.6217 10.8026 52.8867 9.02826C52.1518 7.25387 51.0745 5.64162 49.7164 4.28356C48.3584 2.92551 46.7461 1.84824 44.9717 1.11326C43.1974 0.378287 41.2956 0 39.375 0ZM51.75 39.375C51.75 42.6571 50.4462 45.8047 48.1254 48.1254C45.8047 50.4462 42.6571 51.75 39.375 51.75H14.625C11.3429 51.75 8.19532 50.4462 5.87455 48.1254C3.55379 45.8047 2.25 42.6571 2.25 39.375V14.625C2.25 11.3429 3.55379 8.19532 5.87455 5.87455C8.19532 3.55379 11.3429 2.25 14.625 2.25H39.375C42.6571 2.25 45.8047 3.55379 48.1254 5.87455C50.4462 8.19532 51.75 11.3429 51.75 14.625V39.375Z" fill="white"/>
</svg>
