<svg width="54" height="54" viewBox="0 0 54 54" fill="none" xmlns="http://www.w3.org/2000/svg">
<path d="M39.375 0H14.625C10.7462 0 7.02628 1.54084 4.28356 4.28356C1.54084 7.02628 0 10.7462 0 14.625V39.375C0 41.2956 0.378287 43.1974 1.11326 44.9717C1.84824 46.7461 2.92551 48.3584 4.28356 49.7164C7.02628 52.4592 10.7462 54 14.625 54H39.375C41.2956 54 43.1974 53.6217 44.9717 52.8867C46.7461 52.1518 48.3584 51.0745 49.7164 49.7164C51.0745 48.3584 52.1518 46.7461 52.8867 44.9717C53.6217 43.1974 54 41.2956 54 39.375V14.625C54 12.7044 53.6217 10.8026 52.8867 9.02826C52.1518 7.25387 51.0745 5.64162 49.7164 4.28356C48.3584 2.92551 46.7461 1.84824 44.9717 1.11326C43.1974 0.378287 41.2956 0 39.375 0ZM51.75 39.375C51.75 42.6571 50.4462 45.8047 48.1254 48.1254C45.8047 50.4462 42.6571 51.75 39.375 51.75H14.625C11.3429 51.75 8.19532 50.4462 5.87455 48.1254C3.55379 45.8047 2.25 42.6571 2.25 39.375V14.625C2.25 11.3429 3.55379 8.19532 5.87455 5.87455C8.19532 3.55379 11.3429 2.25 14.625 2.25H39.375C42.6571 2.25 45.8047 3.55379 48.1254 5.87455C50.4462 8.19532 51.75 11.3429 51.75 14.625V39.375Z" fill="white"/>
<g clip-path="url(#clip0_213_541)">
<path d="M9.008 38V15.6H19.504C22.192 15.6 24.24 16.1333 25.648 17.2C27.056 18.2453 27.76 19.6533 27.76 21.424C27.76 22.6187 27.4827 23.6427 26.928 24.496C26.3733 25.328 25.6267 25.9787 24.688 26.448C23.7707 26.896 22.768 27.12 21.68 27.12L22.256 25.968C23.5147 25.968 24.6453 26.2027 25.648 26.672C26.6507 27.12 27.44 27.7813 28.016 28.656C28.6133 29.5307 28.912 30.6187 28.912 31.92C28.912 33.84 28.176 35.3333 26.704 36.4C25.232 37.4667 23.0453 38 20.144 38H9.008ZM13.168 34.736H19.888C21.4453 34.736 22.64 34.48 23.472 33.968C24.304 33.456 24.72 32.6347 24.72 31.504C24.72 30.3947 24.304 29.584 23.472 29.072C22.64 28.5387 21.4453 28.272 19.888 28.272H12.848V25.04H19.056C20.5067 25.04 21.616 24.784 22.384 24.272C23.1733 23.76 23.568 22.992 23.568 21.968C23.568 20.9227 23.1733 20.144 22.384 19.632C21.616 19.12 20.5067 18.864 19.056 18.864H13.168V34.736ZM39.3997 38.224C37.5011 38.224 35.8371 37.8507 34.4077 37.104C32.9997 36.336 31.9011 35.2907 31.1117 33.968C30.3437 32.6453 29.9597 31.1413 29.9597 29.456C29.9597 27.7493 30.3331 26.2453 31.0797 24.944C31.8477 23.6213 32.8931 22.5867 34.2157 21.84C35.5597 21.0933 37.0851 20.72 38.7917 20.72C40.4558 20.72 41.9384 21.0827 43.2397 21.808C44.5411 22.5333 45.5651 23.5573 46.3118 24.88C47.0584 26.2027 47.4318 27.76 47.4318 29.552C47.4318 29.7227 47.4211 29.9147 47.3997 30.128C47.3997 30.3413 47.3891 30.544 47.3678 30.736H33.1277V28.08H45.2558L43.6877 28.912C43.7091 27.9307 43.5064 27.0667 43.0798 26.32C42.6531 25.5733 42.0664 24.9867 41.3197 24.56C40.5944 24.1333 39.7518 23.92 38.7917 23.92C37.8104 23.92 36.9464 24.1333 36.1997 24.56C35.4744 24.9867 34.8984 25.584 34.4717 26.352C34.0664 27.0987 33.8637 27.984 33.8637 29.008V29.648C33.8637 30.672 34.0984 31.5787 34.5677 32.368C35.0371 33.1573 35.6984 33.7653 36.5518 34.192C37.4051 34.6187 38.3864 34.832 39.4958 34.832C40.4558 34.832 41.3198 34.6827 42.0878 34.384C42.8558 34.0853 43.5384 33.616 44.1358 32.976L46.2798 35.44C45.5118 36.336 44.5411 37.0293 43.3678 37.52C42.2158 37.9893 40.8931 38.224 39.3997 38.224Z" fill="white"/>
<path d="M32.5 19.5H44.5" stroke="white" stroke-width="2"/>
</g>
<defs>
<clipPath id="clip0_213_541">
<rect width="40" height="36" fill="white" transform="translate(9 9)"/>
</clipPath>
</defs>
</svg>
