<svg width="495" height="630" viewBox="0 0 495 630" fill="none" xmlns="http://www.w3.org/2000/svg">
<g clip-path="url(#clip0_213_797)">
<path d="M113.912 293.5L83.7681 226.3H87.4161L116.504 291.292H114.68L143.768 226.3H147.224L117.08 293.5H113.912ZM159.331 293.5V226.3H162.595V293.5H159.331ZM200.422 293.5V229.276H175.75V226.3H228.262V229.276H203.59V293.5H200.422ZM226.393 293.5L257.497 226.3H260.665L291.769 293.5H288.217L258.361 228.508H259.801L229.945 293.5H226.393ZM237.145 273.82L238.393 271.036H279.481L280.729 273.82H237.145ZM305.333 293.5V226.3H308.597V290.524H347.957V293.5H305.333ZM361.688 293.5V226.3H364.952V293.5H361.688ZM405.66 293.5V269.596L406.428 271.804L378.492 226.3H382.044L408.156 268.732H406.524L432.732 226.3H436.188L408.156 271.804L408.924 269.596V293.5H405.66Z" fill="white"/>
<path d="M35.4159 225.884C30.4239 225.884 25.7839 225.052 21.4959 223.388C17.2719 221.66 13.5599 219.26 10.3599 216.188C7.22392 213.116 4.79192 209.532 3.06392 205.436C1.33592 201.276 0.471924 196.764 0.471924 191.9C0.471924 187.036 1.33592 182.556 3.06392 178.46C4.79192 174.3 7.22392 170.684 10.3599 167.612C13.5599 164.54 17.2719 162.172 21.4959 160.508C25.7839 158.78 30.4239 157.916 35.4159 157.916C40.0879 157.916 44.4719 158.652 48.5679 160.124C52.6639 161.596 56.1519 163.804 59.0319 166.748L57.1119 168.956C54.0399 166.012 50.7119 163.932 47.1279 162.716C43.5439 161.5 39.6719 160.892 35.5119 160.892C30.9679 160.892 26.7439 161.692 22.8399 163.292C18.9999 164.828 15.6399 167.004 12.7599 169.82C9.87992 172.636 7.63992 175.932 6.03992 179.708C4.50392 183.42 3.73592 187.484 3.73592 191.9C3.73592 196.316 4.50392 200.412 6.03992 204.188C7.63992 207.9 9.87992 211.164 12.7599 213.98C15.6399 216.796 18.9999 219.004 22.8399 220.604C26.7439 222.14 30.9679 222.908 35.5119 222.908C39.6079 222.908 43.4799 222.3 47.1279 221.084C50.8399 219.804 54.1359 217.724 57.0159 214.844L58.9359 217.244C55.9919 220.124 52.4719 222.3 48.3759 223.772C44.2799 225.18 39.9599 225.884 35.4159 225.884ZM55.8639 217.052V192.38H58.9359V217.244L55.8639 217.052ZM84.7997 189.884H121.856V192.86H84.7997V189.884ZM85.3757 222.524H127.52V225.5H82.1117V158.3H126.176V161.276H85.3757V222.524ZM159.485 225.5V161.276H134.813V158.3H187.325V161.276H162.653V225.5H159.485ZM200.447 225.5V158.3H203.135L234.815 213.308H233.375L264.863 158.3H267.551L267.647 225.5H264.479L264.383 163.1H265.439L234.911 216.188H233.183L202.463 163.1H203.615V225.5H200.447ZM281.092 225.5L312.196 158.3H315.364L346.468 225.5H342.916L313.06 160.508H314.5L284.644 225.5H281.092ZM291.844 205.82L293.092 203.036H334.18L335.428 205.82H291.844ZM360.032 225.5V158.3H362.72L412.064 221.66H410.432V158.3H413.696V225.5H411.008L361.664 162.14H363.296V225.5H360.032Z" fill="white"/>
<path d="M84.2881 135.5V68.3H87.5521V135.5H84.2881ZM112.612 135.5V68.3H115.3L146.98 123.308H145.54L177.028 68.3H179.716L179.812 135.5H176.644L176.548 73.1H177.604L147.076 126.188H145.348L114.628 73.1H115.78V135.5H112.612ZM193.257 135.5L224.361 68.3H227.529L258.633 135.5H255.081L225.225 70.508H226.665L196.809 135.5H193.257ZM204.009 115.82L205.257 113.036H246.345L247.593 115.82H204.009ZM299.387 135.884C294.395 135.884 289.755 135.052 285.467 133.388C281.243 131.66 277.531 129.26 274.331 126.188C271.195 123.116 268.763 119.532 267.035 115.436C265.307 111.276 264.443 106.764 264.443 101.9C264.443 97.036 265.307 92.556 267.035 88.46C268.763 84.3 271.195 80.684 274.331 77.612C277.531 74.54 281.243 72.172 285.467 70.508C289.755 68.78 294.395 67.916 299.387 67.916C304.059 67.916 308.443 68.652 312.539 70.124C316.635 71.596 320.123 73.804 323.003 76.748L321.083 78.956C318.011 76.012 314.683 73.932 311.099 72.716C307.515 71.5 303.643 70.892 299.483 70.892C294.939 70.892 290.715 71.692 286.811 73.292C282.971 74.828 279.611 77.004 276.731 79.82C273.851 82.636 271.611 85.932 270.011 89.708C268.475 93.42 267.707 97.484 267.707 101.9C267.707 106.316 268.475 110.412 270.011 114.188C271.611 117.9 273.851 121.164 276.731 123.98C279.611 126.796 282.971 129.004 286.811 130.604C290.715 132.14 294.939 132.908 299.483 132.908C303.579 132.908 307.451 132.3 311.099 131.084C314.811 129.804 318.107 127.724 320.987 124.844L322.907 127.244C319.963 130.124 316.443 132.3 312.347 133.772C308.251 135.18 303.931 135.884 299.387 135.884ZM319.835 127.052V102.38H322.907V127.244L319.835 127.052ZM348.771 99.884H385.827V102.86H348.771V99.884ZM349.347 132.524H391.491V135.5H346.083V68.3H390.147V71.276H349.347V132.524ZM427.68 135.884C422.752 135.884 418.08 135.02 413.664 133.292C409.312 131.5 405.984 129.26 403.68 126.572L405.408 124.268C407.584 126.7 410.656 128.78 414.624 130.508C418.656 132.172 422.976 133.004 427.584 133.004C432.256 133.004 436.096 132.364 439.104 131.084C442.112 129.804 444.32 128.108 445.728 125.996C447.2 123.82 447.936 121.42 447.936 118.796C447.936 115.724 447.168 113.26 445.632 111.404C444.096 109.548 442.048 108.076 439.488 106.988C436.992 105.9 434.24 105.004 431.232 104.3C428.288 103.596 425.28 102.86 422.208 102.092C419.2 101.26 416.416 100.236 413.856 99.02C411.36 97.74 409.344 96.012 407.808 93.836C406.336 91.596 405.6 88.716 405.6 85.196C405.6 82.188 406.4 79.372 408 76.748C409.6 74.124 412.096 72.012 415.488 70.412C418.88 68.748 423.232 67.916 428.544 67.916C432.192 67.916 435.776 68.492 439.296 69.644C442.88 70.732 445.92 72.204 448.416 74.06L446.976 76.652C444.288 74.668 441.312 73.196 438.048 72.236C434.784 71.276 431.648 70.796 428.64 70.796C424.16 70.796 420.416 71.468 417.408 72.812C414.464 74.092 412.288 75.82 410.88 77.996C409.472 80.172 408.768 82.572 408.768 85.196C408.768 88.332 409.536 90.828 411.072 92.684C412.608 94.54 414.624 96.012 417.12 97.1C419.68 98.188 422.464 99.084 425.472 99.788C428.48 100.492 431.488 101.26 434.496 102.092C437.504 102.86 440.256 103.884 442.752 105.164C445.312 106.444 447.328 108.172 448.8 110.348C450.336 112.46 451.104 115.244 451.104 118.7C451.104 121.708 450.272 124.524 448.608 127.148C447.008 129.772 444.448 131.884 440.928 133.484C437.472 135.084 433.056 135.884 427.68 135.884Z" fill="white"/>
<path d="M43.1279 68.884C38.1999 68.884 33.6239 68.052 29.3999 66.388C25.1759 64.66 21.4959 62.26 18.3599 59.188C15.2239 56.116 12.7919 52.532 11.0639 48.436C9.33592 44.276 8.47192 39.764 8.47192 34.9C8.47192 30.036 9.33592 25.556 11.0639 21.46C12.7919 17.3 15.2239 13.684 18.3599 10.612C21.4959 7.54 25.1759 5.172 29.3999 3.508C33.6239 1.78 38.1999 0.916 43.1279 0.916C47.6719 0.916 51.9599 1.652 55.9919 3.124C60.0239 4.596 63.5119 6.836 66.4559 9.844L64.4399 11.956C61.4319 9.076 58.1359 7.028 54.5519 5.812C51.0319 4.532 47.2559 3.892 43.2239 3.892C38.7439 3.892 34.5839 4.692 30.7439 6.292C26.9039 7.828 23.5439 10.004 20.6639 12.82C17.8479 15.636 15.6399 18.932 14.0399 22.708C12.5039 26.42 11.7359 30.484 11.7359 34.9C11.7359 39.316 12.5039 43.412 14.0399 47.188C15.6399 50.9 17.8479 54.164 20.6639 56.98C23.5439 59.796 26.9039 62.004 30.7439 63.604C34.5839 65.14 38.7439 65.908 43.2239 65.908C47.2559 65.908 51.0319 65.3 54.5519 64.084C58.1359 62.804 61.4319 60.692 64.4399 57.748L66.4559 59.86C63.5119 62.868 60.0239 65.14 55.9919 66.676C51.9599 68.148 47.6719 68.884 43.1279 68.884ZM84.2054 68.5V1.3H107.534C113.102 1.3 117.87 2.196 121.838 3.988C125.87 5.78 128.942 8.34 131.054 11.668C133.166 14.932 134.222 18.9 134.222 23.572C134.222 28.244 133.166 32.244 131.054 35.572C128.942 38.9 125.87 41.46 121.838 43.252C117.87 45.044 113.102 45.94 107.534 45.94H86.0294L87.4694 44.404V68.5H84.2054ZM131.438 68.5L113.966 44.116H117.71L135.278 68.5H131.438ZM87.4694 44.404L86.0294 42.964H107.726C115.278 42.964 121.038 41.268 125.006 37.876C129.038 34.484 131.054 29.716 131.054 23.572C131.054 17.428 129.038 12.692 125.006 9.364C121.038 5.972 115.278 4.276 107.726 4.276H86.0294L87.4694 2.74V44.404ZM156.28 32.884H193.336V35.86H156.28V32.884ZM156.856 65.524H199V68.5H153.592V1.3H197.656V4.276H156.856V65.524ZM206.581 68.5L237.685 1.3H240.853L271.957 68.5H268.405L238.549 3.508H239.989L210.133 68.5H206.581ZM217.333 48.82L218.581 46.036H259.669L260.917 48.82H217.333ZM294.914 68.5V4.276H270.242V1.3H322.754V4.276H298.082V68.5H294.914ZM335.875 68.5V1.3H339.139V68.5H335.875ZM364.199 68.5V1.3H366.887L416.231 64.66H414.599V1.3H417.863V68.5H415.175L365.831 5.14H367.463V68.5H364.199ZM471.088 68.884C466.096 68.884 461.456 68.052 457.168 66.388C452.944 64.66 449.232 62.26 446.032 59.188C442.896 56.116 440.464 52.532 438.736 48.436C437.008 44.276 436.144 39.764 436.144 34.9C436.144 30.036 437.008 25.556 438.736 21.46C440.464 17.3 442.896 13.684 446.032 10.612C449.232 7.54 452.944 5.172 457.168 3.508C461.456 1.78 466.096 0.916 471.088 0.916C475.76 0.916 480.144 1.652 484.24 3.124C488.336 4.596 491.824 6.804 494.704 9.748L492.784 11.956C489.712 9.012 486.384 6.932 482.8 5.716C479.216 4.5 475.344 3.892 471.184 3.892C466.64 3.892 462.416 4.692 458.512 6.292C454.672 7.828 451.312 10.004 448.432 12.82C445.552 15.636 443.312 18.932 441.712 22.708C440.176 26.42 439.408 30.484 439.408 34.9C439.408 39.316 440.176 43.412 441.712 47.188C443.312 50.9 445.552 54.164 448.432 56.98C451.312 59.796 454.672 62.004 458.512 63.604C462.416 65.14 466.64 65.908 471.184 65.908C475.28 65.908 479.152 65.3 482.8 64.084C486.512 62.804 489.808 60.724 492.688 57.844L494.608 60.244C491.664 63.124 488.144 65.3 484.048 66.772C479.952 68.18 475.632 68.884 471.088 68.884ZM491.536 60.052V35.38H494.608V60.244L491.536 60.052Z" fill="white"/>
<path d="M160 34.5C390.399 34.5 479.066 34.5 494.6 34.5" stroke="white" stroke-width="3"/>
<path d="M83 191.5C252.391 191.5 317.58 191.5 329 191.5" stroke="white" stroke-width="3"/>
<path d="M361.6 292.5C361.6 522.486 361.6 610.994 361.6 626.5" stroke="white" stroke-width="3"/>
<path d="M362.6 627.5L350.6 615.5" stroke="white" stroke-width="3"/>
<path d="M360.6 627.5L373.6 615.5" stroke="white" stroke-width="3"/>
<path d="M117 291C247.142 291 297.226 291 306 291" stroke="white" stroke-width="3"/>
<path d="M76.5 70.5H94.5" stroke="white" stroke-width="3"/>
<path d="M78 136H96" stroke="white" stroke-width="3"/>
<path d="M152 226.5H170" stroke="white" stroke-width="3"/>
<path d="M353 226.5H371" stroke="white" stroke-width="3"/>
<path d="M304.5 104H322.5M40 190.5H58" stroke="white" stroke-width="3"/>
<path d="M353 291.5H371" stroke="white" stroke-width="3"/>
</g>
<defs>
<clipPath id="clip0_213_797">
<rect width="495" height="629" fill="white" transform="translate(0 0.5)"/>
</clipPath>
</defs>
</svg>
