<svg width="90" height="70" viewBox="0 0 90 70" fill="none" xmlns="http://www.w3.org/2000/svg">
<g clip-path="url(#clip0_211_782)">
<path d="M28.98 60.411L0.719971 0H4.13997L31.41 58.426H29.7L56.97 0H60.21L31.95 60.411H28.98Z" fill="white"/>
<path d="M67.2191 69.3863C62.5391 69.3863 58.1891 68.6384 54.1691 67.1425C50.2091 65.589 46.7291 63.4315 43.7291 60.6699C40.7891 57.9082 38.5091 54.6863 36.8891 51.0041C35.2691 47.2644 34.4591 43.2082 34.4591 38.8356C34.4591 34.463 35.2691 30.4356 36.8891 26.7534C38.5091 23.0137 40.7891 19.763 43.7291 17.0014C46.7291 14.2397 50.2091 12.111 54.1691 10.6151C58.1891 9.06165 62.5391 8.28493 67.2191 8.28493C71.5991 8.28493 75.7091 8.94658 79.5491 10.2699C83.3891 11.5932 86.6591 13.5781 89.3591 16.2247L87.5591 18.2096C84.6791 15.563 81.5591 13.6932 78.1991 12.6C74.8391 11.5069 71.2091 10.9603 67.3091 10.9603C63.0491 10.9603 59.0891 11.6795 55.4291 13.1178C51.8291 14.4986 48.6791 16.4548 45.9791 18.9863C43.2791 21.5178 41.1791 24.4808 39.6791 27.8753C38.2391 31.2123 37.5191 34.8658 37.5191 38.8356C37.5191 42.8055 38.2391 46.4877 39.6791 49.8822C41.1791 53.2192 43.2791 56.1534 45.9791 58.6849C48.6791 61.2164 51.8291 63.2014 55.4291 64.6397C59.0891 66.0206 63.0491 66.711 67.3091 66.711C71.1491 66.711 74.7791 66.1644 78.1991 65.0712C81.6791 63.9206 84.7691 62.0507 87.4691 59.4617L89.2691 61.6192C86.5091 64.2082 83.2091 66.1644 79.3691 67.4877C75.5291 68.7534 71.4791 69.3863 67.2191 69.3863ZM86.3891 61.4466V39.2671H89.2691V61.6192L86.3891 61.4466Z" fill="white"/>
<path d="M89 40.7534H72.8182" stroke="white" stroke-width="3"/>
</g>
<defs>
<clipPath id="clip0_211_782">
<rect width="90" height="70" fill="white"/>
</clipPath>
</defs>
</svg>
